<?xml version="1.0" encoding="utf-8"?>
<!-- Generator: Adobe Illustrator 27.0.1, SVG Export Plug-In . SVG Version: 6.00 Build 0)  -->
<svg version="1.1" xmlns="http://www.w3.org/2000/svg" xmlns:xlink="http://www.w3.org/1999/xlink" x="0px" y="0px"
	 viewBox="0 0 7 10" style="enable-background:new 0 0 7 10;" xml:space="preserve">
<style type="text/css">
	.st0{display:none;}
	.st1{display:inline;fill:none;stroke:#000000;stroke-width:1.000000e-02;stroke-miterlimit:10;}
</style>
<g id="Layer_1" class="st0">
	<rect class="st1" width="1" height="1"/>
	<rect x="1" class="st1" width="1" height="1"/>
	<rect x="2" class="st1" width="1" height="1"/>
	<rect x="3" class="st1" width="1" height="1"/>
	<rect x="4" class="st1" width="1" height="1"/>
	<rect x="5" class="st1" width="1" height="1"/>
	<rect x="6" class="st1" width="1" height="1"/>
	<rect y="1" class="st1" width="1" height="1"/>
	<rect x="1" y="1" class="st1" width="1" height="1"/>
	<rect x="2" y="1" class="st1" width="1" height="1"/>
	<rect x="3" y="1" class="st1" width="1" height="1"/>
	<rect x="4" y="1" class="st1" width="1" height="1"/>
	<rect x="5" y="1" class="st1" width="1" height="1"/>
	<rect x="6" y="1" class="st1" width="1" height="1"/>
	<rect y="2" class="st1" width="1" height="1"/>
	<rect x="1" y="2" class="st1" width="1" height="1"/>
	<rect x="2" y="2" class="st1" width="1" height="1"/>
	<rect x="3" y="2" class="st1" width="1" height="1"/>
	<rect x="4" y="2" class="st1" width="1" height="1"/>
	<rect x="5" y="2" class="st1" width="1" height="1"/>
	<rect x="6" y="2" class="st1" width="1" height="1"/>
	<rect y="3" class="st1" width="1" height="1"/>
	<rect x="1" y="3" class="st1" width="1" height="1"/>
	<rect x="2" y="3" class="st1" width="1" height="1"/>
	<rect x="3" y="3" class="st1" width="1" height="1"/>
	<rect x="4" y="3" class="st1" width="1" height="1"/>
	<rect x="5" y="3" class="st1" width="1" height="1"/>
	<rect x="6" y="3" class="st1" width="1" height="1"/>
	<rect y="4" class="st1" width="1" height="1"/>
	<rect x="1" y="4" class="st1" width="1" height="1"/>
	<rect x="2" y="4" class="st1" width="1" height="1"/>
	<rect x="3" y="4" class="st1" width="1" height="1"/>
	<rect x="4" y="4" class="st1" width="1" height="1"/>
	<rect x="5" y="4" class="st1" width="1" height="1"/>
	<rect x="6" y="4" class="st1" width="1" height="1"/>
	<rect y="5" class="st1" width="1" height="1"/>
	<rect x="1" y="5" class="st1" width="1" height="1"/>
	<rect x="2" y="5" class="st1" width="1" height="1"/>
	<rect x="3" y="5" class="st1" width="1" height="1"/>
	<rect x="4" y="5" class="st1" width="1" height="1"/>
	<rect x="5" y="5" class="st1" width="1" height="1"/>
	<rect x="6" y="5" class="st1" width="1" height="1"/>
	<rect y="6" class="st1" width="1" height="1"/>
	<rect x="1" y="6" class="st1" width="1" height="1"/>
	<rect x="2" y="6" class="st1" width="1" height="1"/>
	<rect x="3" y="6" class="st1" width="1" height="1"/>
	<rect x="4" y="6" class="st1" width="1" height="1"/>
	<rect x="5" y="6" class="st1" width="1" height="1"/>
	<rect x="6" y="6" class="st1" width="1" height="1"/>
	<rect y="7" class="st1" width="1" height="1"/>
	<rect x="1" y="7" class="st1" width="1" height="1"/>
	<rect x="2" y="7" class="st1" width="1" height="1"/>
	<rect x="3" y="7" class="st1" width="1" height="1"/>
	<rect x="4" y="7" class="st1" width="1" height="1"/>
	<rect x="5" y="7" class="st1" width="1" height="1"/>
	<rect x="6" y="7" class="st1" width="1" height="1"/>
	<rect y="8" class="st1" width="1" height="1"/>
	<rect x="1" y="8" class="st1" width="1" height="1"/>
	<rect x="2" y="8" class="st1" width="1" height="1"/>
	<rect x="3" y="8" class="st1" width="1" height="1"/>
	<rect x="4" y="8" class="st1" width="1" height="1"/>
	<rect x="5" y="8" class="st1" width="1" height="1"/>
	<rect x="6" y="8" class="st1" width="1" height="1"/>
	<rect y="9" class="st1" width="1" height="1"/>
	<rect x="1" y="9" class="st1" width="1" height="1"/>
	<rect x="2" y="9" class="st1" width="1" height="1"/>
	<rect x="3" y="9" class="st1" width="1" height="1"/>
	<rect x="4" y="9" class="st1" width="1" height="1"/>
	<rect x="5" y="9" class="st1" width="1" height="1"/>
	<rect x="6" y="9" class="st1" width="1" height="1"/>
</g>
<g id="Layer_2">
	<rect width="1" height="1"/>
	<rect x="1" width="1" height="1"/>
	<rect x="5" width="1" height="1"/>
	<rect x="6" width="1" height="1"/>
	<rect x="2" y="1" width="1" height="1"/>
	<rect x="3" y="1" width="1" height="1"/>
	<rect x="4" y="1" width="1" height="1"/>
	<rect y="1" width="1" height="1"/>
	<rect y="2" width="1" height="1"/>
	<rect y="3" width="1" height="1"/>
	<rect y="5" width="1" height="1"/>
	<rect y="6" width="1" height="1"/>
	<rect y="7" width="1" height="1"/>
	<rect y="8" width="1" height="1"/>
	<rect x="1" y="4" width="1" height="1"/>
	<rect x="2" y="5" width="1" height="1"/>
	<rect x="2" y="9" width="1" height="1"/>
	<rect x="1" y="9" width="1" height="1"/>
	<rect x="5" y="9" width="1" height="1"/>
	<rect x="4" y="9" width="1" height="1"/>
	<rect x="2" y="8" width="1" height="1"/>
	<rect x="4" y="8" width="1" height="1"/>
	<rect x="2" y="7" width="1" height="1"/>
	<rect x="4" y="7" width="1" height="1"/>
	<rect x="2" y="3" width="1" height="1"/>
	<rect x="4" y="3" width="1" height="1"/>
	<rect x="3" y="5" width="1" height="1"/>
	<rect x="5" y="4" width="1" height="1"/>
	<rect x="4" y="5" width="1" height="1"/>
	<rect x="6" y="1" width="1" height="1"/>
	<rect x="6" y="2" width="1" height="1"/>
	<rect x="6" y="3" width="1" height="1"/>
	<rect x="6" y="5" width="1" height="1"/>
	<rect x="6" y="6" width="1" height="1"/>
	<rect x="6" y="7" width="1" height="1"/>
	<rect x="6" y="8" width="1" height="1"/>
</g>
</svg>
